<svg width="100%" viewBox="0 0 680 280" role="img" xmlns="http://www.w3.org/2000/svg">
  <title>FixFlow AI Logo v2</title>
  <desc>FixFlow AI premium logo — dark blue background, geometric hexagon icon, modern tech wordmark</desc>
  <rect x="60" y="20" width="560" height="240" rx="16" style="fill:rgb(12, 68, 124)"/>
  <rect x="60" y="20" width="560" height="240" rx="16" fill="none" stroke="#185FA5" stroke-width="1"/>
  <rect x="60" y="20" width="12" height="12" rx="3" style="fill:rgb(24, 95, 165)"/>
  <rect x="608" y="20" width="12" height="12" rx="3" style="fill:rgb(24, 95, 165)"/>
  <rect x="60" y="248" width="12" height="12" rx="3" style="fill:rgb(24, 95, 165)"/>
  <rect x="608" y="248" width="12" height="12" rx="3" style="fill:rgb(24, 95, 165)"/>
  <polygon points="158,75 196,53 234,75 234,119 196,141 158,119" style="fill:rgb(4, 44, 83)"/>
  <polygon points="164,79 196,61 228,79 228,115 196,133 164,115" style="fill:rgb(24, 95, 165)"/>
  <polygon points="172,84 196,70 220,84 220,110 196,124 172,110" style="fill:rgb(55, 138, 221)"/>
  <polygon points="202,78 186,100 197,100 186,122 210,96 199,96" style="fill:rgb(230, 241, 251)"/>
  <text x="258" y="115" font-family="'Arial Black', Arial, sans-serif" font-size="58" font-weight="900" letter-spacing="-2" style="fill:rgb(255, 255, 255)">Fix</text>
  <text x="338" y="115" font-family="'Arial Black', Arial, sans-serif" font-size="58" font-weight="900" letter-spacing="-2" style="fill:rgb(133, 183, 235)">Flow</text>
  <rect x="258" y="125" width="36" height="3" rx="1.5" style="fill:rgb(55, 138, 221)"/>
  <text x="300" y="139" font-family="Arial, sans-serif" font-size="11" font-weight="400" letter-spacing="5" style="fill:rgb(181, 212, 244)">AI  OPERATIONAL  INTELLIGENCE</text>
  <circle cx="258" cy="168" r="2.5" style="fill:rgb(55, 138, 221)"/>
  <line x1="268" y1="168" x2="520" y2="168" stroke="#185FA5" stroke-width="0.5"/>
  <text x="258" y="188" font-family="Arial, sans-serif" font-size="10" font-weight="400" letter-spacing="3" opacity="0.6" style="fill:rgb(181, 212, 244)">FROM PROBLEM TO FIX — IN SECONDS</text>
  <line x1="80" y1="210" x2="120" y2="210" stroke="#378ADD" stroke-width="0.5" opacity="0.4"/>
  <line x1="560" y1="210" x2="600" y2="210" stroke="#378ADD" stroke-width="0.5" opacity="0.4"/>
</svg>
